<svg width="30" height="19" viewBox="0 0 30 19" fill="none" xmlns="http://www.w3.org/2000/svg" size="24" class="absolute left-0 top-1/2 -translate-y-1/2 text-gray-300"><path id="Subtract" fill-rule="evenodd" clip-rule="evenodd" d="M20.1812 6.74881C19.6786 5.54826 19.0514 4.3952 18.3117 3.28505C16.894 2.6184 15.3942 2.14472 13.852 1.87653C13.6599 2.22558 13.4354 2.69506 13.2806 3.06855C11.6178 2.81727 9.97027 2.81727 8.33801 3.06855C8.18332 2.69514 7.9538 2.22558 7.75993 1.87653C6.21616 2.14484 4.7151 2.61973 3.29676 3.28853C0.474387 7.57502 -0.290738 11.7549 0.0917822 15.8757C1.96377 17.2806 3.77791 18.1341 5.56149 18.6926C6.00475 18.08 6.39659 17.4314 6.73295 16.7535C6.09256 16.5085 5.47521 16.2065 4.88824 15.8512C5.0427 15.7362 5.19353 15.6163 5.3405 15.4917C8.89736 17.1637 12.7621 17.1637 16.2765 15.4917C16.4241 15.6154 16.5749 15.7353 16.7287 15.8512C16.1408 16.2075 15.5223 16.51 14.8806 16.7553C15.2189 17.4359 15.61 18.0852 16.0521 18.6943C17.8374 18.1359 19.6532 17.2824 21.5252 15.8757C21.7195 13.8072 21.6018 11.8579 21.2072 10.0143C20.6098 10.4651 19.7565 10.4183 19.2122 9.87404C18.6168 9.27863 18.6168 8.31328 19.2122 7.71787L20.1812 6.74881ZM20.5516 7.70534L19.8756 8.38131C19.6466 8.61031 19.6466 8.9816 19.8756 9.2106C20.1046 9.4396 20.4759 9.4396 20.7049 9.2106L20.95 8.96552C20.8321 8.53978 20.6991 8.11978 20.5516 7.70534ZM5.27413 11.1197C5.27413 12.3397 6.14979 13.3415 7.21756 13.3415C8.30407 13.3415 9.16267 12.3397 9.16098 11.1197C9.17964 9.89797 8.30407 8.89621 7.21756 8.89621C6.13113 8.89621 5.27413 9.89975 5.27413 11.1197ZM12.4561 11.1197C12.4561 12.3397 13.3316 13.3415 14.3994 13.3415C15.4859 13.3415 16.3428 12.3397 16.3428 11.1197C16.3615 9.89797 15.4859 8.89621 14.3994 8.89621C13.313 8.89621 12.4561 9.89975 12.4561 11.1197Z" fill="#8D8D99"></path><path id="Vector" fill-rule="evenodd" clip-rule="evenodd" d="M23.8079 0.5864C23.8079 0.26254 24.0705 0 24.3943 0H28.4991C28.823 0 29.0855 0.26254 29.0855 0.5864V4.6912C29.0855 5.01506 28.823 5.2776 28.4991 5.2776C28.1753 5.2776 27.9127 5.01506 27.9127 4.6912V2.0021L20.7042 9.21065C20.4752 9.43966 20.1039 9.43966 19.8749 9.21065C19.6459 8.98165 19.6459 8.61036 19.8749 8.38136L27.0834 1.1728H24.3943C24.0705 1.1728 23.8079 0.91026 23.8079 0.5864Z" fill="#9956F6"></path></svg>