<svg stroke="currentColor" fill="none" stroke-width="0" xmlns="http://www.w3.org/2000/svg" viewBox="0 0 20 20" width="1em" height="1em"><path d="M3.33337 9.16675V12.5001C3.33337 15.2499 3.33337 16.6248 4.18765 17.4792C5.04192 18.3334 6.41685 18.3334 9.16671 18.3334H10.8334C13.5832 18.3334 14.9581 18.3334 15.8125 17.4792C16.6667 16.6248 16.6667 15.2499 16.6667 12.5001V9.16675" stroke="currentColor" stroke-width="1.25" stroke-linecap="round" stroke-linejoin="round"></path><path d="M2.5 7.49992C2.5 6.87684 2.5 6.5653 2.66747 6.33325C2.77717 6.18124 2.93497 6.05499 3.125 5.96723C3.41507 5.83325 3.80448 5.83325 4.58333 5.83325H15.4167C16.1955 5.83325 16.5849 5.83325 16.875 5.96723C17.065 6.05499 17.2228 6.18124 17.3325 6.33325C17.5 6.5653 17.5 6.87684 17.5 7.49992C17.5 8.12299 17.5 8.4345 17.3325 8.66658C17.2228 8.81858 17.065 8.94484 16.875 9.03259C16.5849 9.16659 16.1955 9.16659 15.4167 9.16659H4.58333C3.80448 9.16659 3.41507 9.16659 3.125 9.03259C2.93497 8.94484 2.77717 8.81858 2.66747 8.66658C2.5 8.4345 2.5 8.12299 2.5 7.49992Z" stroke="currentColor" stroke-width="1.25" stroke-linejoin="round"></path><path d="M5 3.15484C5 2.33299 5.66624 1.66675 6.48809 1.66675H6.78572C8.56092 1.66675 10 3.10583 10 4.88103V5.83341H7.67857C6.19923 5.83341 5 4.63417 5 3.15484Z" stroke="currentColor" stroke-width="1.25" stroke-linejoin="round"></path><path d="M15 3.15484C15 2.33299 14.3338 1.66675 13.5119 1.66675H13.2142C11.4391 1.66675 10 3.10583 10 4.88103V5.83341H12.3214C13.8007 5.83341 15 4.63417 15 3.15484Z" stroke="currentColor" stroke-width="1.25" stroke-linejoin="round"></path><path d="M10 9.16675V18.3334" stroke="currentColor" stroke-width="1.25" stroke-linecap="round" stroke-linejoin="round"></path></svg>