<svg stroke="gray" fill="none" stroke-width="0" xmlns="http://www.w3.org/2000/svg" viewBox="0 0 20 20" class="absolute left-0 top-1/2 -translate-y-1/2 text-gray-300" width="24" height="24"><path d="M13.8439 13.4039C11.6497 14.6398 10.3977 17.2008 10 17.9167V6.66669C10.3454 6.04499 11.335 4.26374 13.0264 3.05309C13.739 2.54308 14.0952 2.28807 14.5477 2.52059C15 2.75311 15 3.26638 15 4.29291V11.6595C15 12.214 15 12.4913 14.8862 12.6861C14.7722 12.8809 14.4628 13.0553 13.8439 13.4039Z" stroke="gray" stroke-width="1.25" stroke-linecap="round" stroke-linejoin="round"></path><path d="M10 6.50463C9.4276 5.90336 7.76815 4.47533 4.98382 3.97465C3.57327 3.721 2.868 3.59418 2.26734 4.08028C1.66669 4.56638 1.66669 5.35573 1.66669 6.93444V12.6081C1.66669 14.0516 1.66669 14.7733 2.05219 15.2239C2.43769 15.6746 3.2864 15.8272 4.98382 16.1324C6.49696 16.4045 7.67789 16.8381 8.53269 17.2738C9.37369 17.7023 9.79419 17.9167 10 17.9167C10.2059 17.9167 10.6264 17.7023 11.4674 17.2738C12.3222 16.8381 13.5031 16.4045 15.0162 16.1324C16.7137 15.8272 17.5624 15.6746 17.9479 15.2239C18.3334 14.7733 18.3334 14.0516 18.3334 12.6081V6.93444C18.3334 5.35573 18.3334 4.56638 17.7327 4.08028C17.132 3.59418 15.8334 3.97465 15 4.58333" stroke="gray" stroke-width="1.25" stroke-linecap="round" stroke-linejoin="round"></path></svg>