<svg width="24" height="24" viewBox="0 0 24 24" fill="none" xmlns="http://www.w3.org/2000/svg" style="mix-blend-mode: luminosity;"><g><path d="M9.45215 6.64568C10.4762 5.03704 11.1237 3.5417 11.4985 2.41085C11.6958 1.81577 12.4676 1.56933 12.9204 2.00285C17.8728 6.74378 19.5065 10.4018 19.837 14.6182C20.083 18.7666 18.044 22.458 12.5713 22.458C7.43329 22.458 3.64157 18.8721 4.15717 13.1885C4.44564 10.0087 5.62133 7.53783 6.63646 5.97149C7.05791 5.32118 7.97006 5.31159 8.47492 5.89949L9.13441 6.66745C9.22117 6.76848 9.38063 6.75802 9.45215 6.64568Z" fill="url(#paint0_radial_5881_937)"></path><path d="M9.45215 6.64568C10.4762 5.03704 11.1237 3.5417 11.4985 2.41085C11.6958 1.81577 12.4676 1.56933 12.9204 2.00285C17.8728 6.74378 19.5065 10.4018 19.837 14.6182C20.083 18.7666 18.044 22.458 12.5713 22.458C7.43329 22.458 3.64157 18.8721 4.15717 13.1885C4.44564 10.0087 5.62133 7.53783 6.63646 5.97149C7.05791 5.32118 7.97006 5.31159 8.47492 5.89949L9.13441 6.66745C9.22117 6.76848 9.38063 6.75802 9.45215 6.64568Z" fill="url(#paint1_radial_5881_937)"></path><path d="M9.45215 6.64568C10.4762 5.03704 11.1237 3.5417 11.4985 2.41085C11.6958 1.81577 12.4676 1.56933 12.9204 2.00285C17.8728 6.74378 19.5065 10.4018 19.837 14.6182C20.083 18.7666 18.044 22.458 12.5713 22.458C7.43329 22.458 3.64157 18.8721 4.15717 13.1885C4.44564 10.0087 5.62133 7.53783 6.63646 5.97149C7.05791 5.32118 7.97006 5.31159 8.47492 5.89949L9.13441 6.66745C9.22117 6.76848 9.38063 6.75802 9.45215 6.64568Z" fill="url(#paint2_linear_5881_937)"></path><path d="M9.45215 6.64568C10.4762 5.03704 11.1237 3.5417 11.4985 2.41085C11.6958 1.81577 12.4676 1.56933 12.9204 2.00285C17.8728 6.74378 19.5065 10.4018 19.837 14.6182C20.083 18.7666 18.044 22.458 12.5713 22.458C7.43329 22.458 3.64157 18.8721 4.15717 13.1885C4.44564 10.0087 5.62133 7.53783 6.63646 5.97149C7.05791 5.32118 7.97006 5.31159 8.47492 5.89949L9.13441 6.66745C9.22117 6.76848 9.38063 6.75802 9.45215 6.64568Z" fill="url(#paint3_radial_5881_937)"></path><path d="M9.45215 6.64568C10.4762 5.03704 11.1237 3.5417 11.4985 2.41085C11.6958 1.81577 12.4676 1.56933 12.9204 2.00285C17.8728 6.74378 19.5065 10.4018 19.837 14.6182C20.083 18.7666 18.044 22.458 12.5713 22.458C7.43329 22.458 3.64157 18.8721 4.15717 13.1885C4.44564 10.0087 5.62133 7.53783 6.63646 5.97149C7.05791 5.32118 7.97006 5.31159 8.47492 5.89949L9.13441 6.66745C9.22117 6.76848 9.38063 6.75802 9.45215 6.64568Z" fill="url(#paint4_radial_5881_937)"></path><path d="M9.45215 6.64568C10.4762 5.03704 11.1237 3.5417 11.4985 2.41085C11.6958 1.81577 12.4676 1.56933 12.9204 2.00285C17.8728 6.74378 19.5065 10.4018 19.837 14.6182C20.083 18.7666 18.044 22.458 12.5713 22.458C7.43329 22.458 3.64157 18.8721 4.15717 13.1885C4.44564 10.0087 5.62133 7.53783 6.63646 5.97149C7.05791 5.32118 7.97006 5.31159 8.47492 5.89949L9.13441 6.66745C9.22117 6.76848 9.38063 6.75802 9.45215 6.64568Z" fill="url(#paint5_radial_5881_937)"></path><path d="M9.45215 6.64568C10.4762 5.03704 11.1237 3.5417 11.4985 2.41085C11.6958 1.81577 12.4676 1.56933 12.9204 2.00285C17.8728 6.74378 19.5065 10.4018 19.837 14.6182C20.083 18.7666 18.044 22.458 12.5713 22.458C7.43329 22.458 3.64157 18.8721 4.15717 13.1885C4.44564 10.0087 5.62133 7.53783 6.63646 5.97149C7.05791 5.32118 7.97006 5.31159 8.47492 5.89949L9.13441 6.66745C9.22117 6.76848 9.38063 6.75802 9.45215 6.64568Z" fill="url(#paint6_radial_5881_937)"></path><path d="M9.45215 6.64568C10.4762 5.03704 11.1237 3.5417 11.4985 2.41085C11.6958 1.81577 12.4676 1.56933 12.9204 2.00285C17.8728 6.74378 19.5065 10.4018 19.837 14.6182C20.083 18.7666 18.044 22.458 12.5713 22.458C7.43329 22.458 3.64157 18.8721 4.15717 13.1885C4.44564 10.0087 5.62133 7.53783 6.63646 5.97149C7.05791 5.32118 7.97006 5.31159 8.47492 5.89949L9.13441 6.66745C9.22117 6.76848 9.38063 6.75802 9.45215 6.64568Z" fill="url(#paint7_radial_5881_937)"></path><g filter="url(#filter0_i_5881_937)"><path d="M7.63367 14.9075C8.55919 12.705 10.4071 10.28 11.75 8.84458C12.2502 8.30978 13.0745 8.29722 13.6038 8.80333C16.0158 11.1096 16.7701 13.2167 17.4131 15.6575C18.103 18.2763 17.4131 22.4958 12.2219 22.4958C7.75132 22.4958 6.20267 18.3129 7.63367 14.9075Z" fill="url(#paint8_radial_5881_937)"></path><path d="M7.63367 14.9075C8.55919 12.705 10.4071 10.28 11.75 8.84458C12.2502 8.30978 13.0745 8.29722 13.6038 8.80333C16.0158 11.1096 16.7701 13.2167 17.4131 15.6575C18.103 18.2763 17.4131 22.4958 12.2219 22.4958C7.75132 22.4958 6.20267 18.3129 7.63367 14.9075Z" fill="url(#paint9_radial_5881_937)"></path><path d="M7.63367 14.9075C8.55919 12.705 10.4071 10.28 11.75 8.84458C12.2502 8.30978 13.0745 8.29722 13.6038 8.80333C16.0158 11.1096 16.7701 13.2167 17.4131 15.6575C18.103 18.2763 17.4131 22.4958 12.2219 22.4958C7.75132 22.4958 6.20267 18.3129 7.63367 14.9075Z" fill="url(#paint10_radial_5881_937)"></path></g><path d="M7.63367 14.9075C8.55919 12.705 10.4071 10.28 11.75 8.84458C12.2502 8.30978 13.0745 8.29722 13.6038 8.80333C16.0158 11.1096 16.7701 13.2167 17.4131 15.6575C18.103 18.2763 17.4131 22.4958 12.2219 22.4958C7.75132 22.4958 6.20267 18.3129 7.63367 14.9075Z" fill="url(#paint11_linear_5881_937)"></path><path d="M7.63367 14.9075C8.55919 12.705 10.4071 10.28 11.75 8.84458C12.2502 8.30978 13.0745 8.29722 13.6038 8.80333C16.0158 11.1096 16.7701 13.2167 17.4131 15.6575C18.103 18.2763 17.4131 22.4958 12.2219 22.4958C7.75132 22.4958 6.20267 18.3129 7.63367 14.9075Z" fill="url(#paint12_radial_5881_937)"></path><g filter="url(#filter1_f_5881_937)"><path d="M7.63367 14.9075C8.55919 12.705 10.4071 10.28 11.75 8.84458C12.2502 8.30978 13.0745 8.29722 13.6038 8.80333C16.0158 11.1096 16.7701 13.2167 17.4131 15.6575C18.103 18.2763 17.4131 22.4958 12.2219 22.4958C7.75132 22.4958 6.20267 18.3129 7.63367 14.9075Z" fill="url(#paint12_radial_5881_937)"></path></g><g filter="url(#filter2_f_5881_937)"><path d="M7.36029 5.90594C6.38525 7.1162 4.44717 10.4732 4.49516 14.2189C5.45624 10.3771 7.70192 9.16642 7.36029 5.90594Z" fill="url(#paint14_linear_5881_937)"></path></g></g><defs><filter id="filter0_i_5881_937" x="7.11743" y="8.43359" width="11.019" height="14.0625" filterUnits="userSpaceOnUse" color-interpolation-filters="sRGB"><feFlood flood-opacity="0" result="BackgroundImageFix"></feFlood><feBlend mode="normal" in="SourceGraphic" in2="BackgroundImageFix" result="shape"></feBlend><feColorMatrix in="SourceAlpha" type="matrix" values="0 0 0 0 0 0 0 0 0 0 0 0 0 0 0 0 0 0 127 0" result="hardAlpha"></feColorMatrix><feOffset dx="0.5"></feOffset><feGaussianBlur stdDeviation="0.25"></feGaussianBlur><feComposite in2="hardAlpha" operator="arithmetic" k2="-1" k3="1"></feComposite><feColorMatrix type="matrix" values="0 0 0 0 0.952941 0 0 0 0 0.615686 0 0 0 0 0.364706 0 0 0 1 0"></feColorMatrix><feBlend mode="normal" in2="shape" result="effect1_innerShadow_5881_937"></feBlend></filter><filter id="filter1_f_5881_937" x="3.97974" y="1.43262" width="9.19275" height="17.2109" filterUnits="userSpaceOnUse" color-interpolation-filters="sRGB"><feFlood flood-opacity="0" result="BackgroundImageFix"></feFlood><feBlend mode="normal" in="SourceGraphic" in2="BackgroundImageFix" result="shape"></feBlend><feGaussianBlur stdDeviation="0.625" result="effect1_foregroundBlur_5881_937"></feGaussianBlur></filter><filter id="filter2_f_5881_937" x="2.99426" y="4.40625" width="5.90112" height="11.3125" filterUnits="userSpaceOnUse" color-interpolation-filters="sRGB"><feFlood flood-opacity="0" result="BackgroundImageFix"></feFlood><feBlend mode="normal" in="SourceGraphic" in2="BackgroundImageFix" result="shape"></feBlend><feGaussianBlur stdDeviation="0.75" result="effect1_foregroundBlur_5881_937"></feGaussianBlur></filter><radialGradient id="paint0_radial_5881_937" cx="0" cy="0" r="1" gradientUnits="userSpaceOnUse" gradientTransform="translate(18.0017 14.79) rotate(-179.474) scale(12.8241 19.3396)"><stop stop-color="#FF953D"></stop><stop offset="1" stop-color="#FF5141"></stop></radialGradient><radialGradient id="paint1_radial_5881_937" cx="0" cy="0" r="1" gradientUnits="userSpaceOnUse" gradientTransform="translate(7.7793 11.7412) rotate(-157.937) scale(7.75809 13.3871)"><stop stop-color="#CE5327"></stop><stop offset="1" stop-color="#CE5327" stop-opacity="0"></stop></radialGradient><linearGradient id="paint2_linear_5881_937" x1="13.7523" y1="22.458" x2="13.7523" y2="18.6341" gradientUnits="userSpaceOnUse"><stop stop-color="#FF7583"></stop><stop offset="1" stop-color="#FF7583" stop-opacity="0"></stop></linearGradient><radialGradient id="paint3_radial_5881_937" cx="0" cy="0" r="1" gradientUnits="userSpaceOnUse" gradientTransform="translate(3.71785 10.7936) rotate(24.0149) scale(2.32849 19.2743)"><stop stop-color="#FFAA7B"></stop><stop offset="1" stop-color="#FFAA7B" stop-opacity="0"></stop></radialGradient><radialGradient id="paint4_radial_5881_937" cx="0" cy="0" r="1" gradientUnits="userSpaceOnUse" gradientTransform="translate(6.98271 4.68824) rotate(77.3196) scale(2.88027 3.59391)"><stop stop-color="#FF5E47"></stop><stop offset="1" stop-color="#FF5E47" stop-opacity="0"></stop></radialGradient><radialGradient id="paint5_radial_5881_937" cx="0" cy="0" r="1" gradientUnits="userSpaceOnUse" gradientTransform="translate(12.3217 1.02441) rotate(87.8819) scale(7.60305 7.03741)"><stop stop-color="#FF2F3C"></stop><stop offset="1" stop-color="#FF2F3C" stop-opacity="0"></stop></radialGradient><radialGradient id="paint6_radial_5881_937" cx="0" cy="0" r="1" gradientUnits="userSpaceOnUse" gradientTransform="translate(10.425 3.59936) rotate(25.3285) scale(1.72421 3.46014)"><stop stop-color="#FF846C"></stop><stop offset="1" stop-color="#FF846C" stop-opacity="0"></stop></radialGradient><radialGradient id="paint7_radial_5881_937" cx="0" cy="0" r="1" gradientUnits="userSpaceOnUse" gradientTransform="translate(9.34322 6.15723) rotate(113.224) scale(1.70878 0.391587)"><stop stop-color="#FFA682"></stop><stop offset="1" stop-color="#FFA682" stop-opacity="0"></stop></radialGradient><radialGradient id="paint8_radial_5881_937" cx="0" cy="0" r="1" gradientUnits="userSpaceOnUse" gradientTransform="translate(15.9035 18.282) rotate(-168.558) scale(7.52183 9.36681)"><stop stop-color="#FFDA2F"></stop><stop offset="1" stop-color="#FF8E41"></stop></radialGradient><radialGradient id="paint9_radial_5881_937" cx="0" cy="0" r="1" gradientUnits="userSpaceOnUse" gradientTransform="translate(9.30104 6.44432) rotate(69.0442) scale(10.6069 9.21595)"><stop stop-color="#FD5639"></stop><stop offset="1" stop-color="#FE5533" stop-opacity="0"></stop></radialGradient><radialGradient id="paint10_radial_5881_937" cx="0" cy="0" r="1" gradientUnits="userSpaceOnUse" gradientTransform="translate(14.4293 15.4715) rotate(174.239) scale(7.34899 17.9935)"><stop offset="0.627719" stop-color="#D7812D" stop-opacity="0"></stop><stop offset="1" stop-color="#D7812D"></stop></radialGradient><linearGradient id="paint11_linear_5881_937" x1="12.377" y1="7.95898" x2="12.377" y2="10.6945" gradientUnits="userSpaceOnUse"><stop stop-color="#F95131"></stop><stop offset="1" stop-color="#F95131" stop-opacity="0"></stop></linearGradient><radialGradient id="paint12_radial_5881_937" cx="0" cy="0" r="1" gradientUnits="userSpaceOnUse" gradientTransform="translate(17.2393 14.1016) rotate(143.063) scale(12.0409 8.71305)"><stop offset="0.772305" stop-color="#F18A52" stop-opacity="0"></stop><stop offset="1" stop-color="#F18A52"></stop></radialGradient><linearGradient id="paint13_linear_5881_937" x1="11.2469" y1="3.19161" x2="5.74168" y2="17.0491" gradientUnits="userSpaceOnUse"><stop stop-color="#FF7558"></stop><stop offset="1" stop-color="#F38758"></stop></linearGradient><linearGradient id="paint14_linear_5881_937" x1="7.15577" y1="6.10807" x2="4.1866" y2="14.6097" gradientUnits="userSpaceOnUse"><stop stop-color="#FF815B"></stop><stop offset="1" stop-color="#FF9C6D"></stop></linearGradient></defs></svg>