<svg stroke="currentColor" fill="none" stroke-width="0" xmlns="http://www.w3.org/2000/svg" viewBox="0 0 24 24" class="absolute left-0 top-1/2 -translate-y-1/2 text-gray-300" width="24" height="24"><path d="M11.9863 2.25C11.2718 2.25 10.4332 2.50969 9.37695 2.88477C8.32071 3.25984 7.11185 3.76826 5.95898 4.32031C4.80612 4.87237 3.71372 5.46571 2.875 6.03125C2.45564 6.31402 2.09944 6.58573 1.81641 6.87305C1.53337 7.16036 1.25 7.45522 1.25 8C1.25 8.54478 1.53337 8.83964 1.81641 9.12695C2.09944 9.41427 2.45564 9.68598 2.875 9.96875C3.54056 10.4175 4.36931 10.8828 5.25781 11.332L5.49023 16.6621C5.49653 16.807 5.51067 16.9825 5.57031 17.1797C5.70877 17.6374 5.9777 18.0952 6.42188 18.4141H6.42383C7.78613 19.3916 9.87954 19.75 11.9863 19.75C14.0931 19.75 16.1865 19.3916 17.5488 18.4141C17.9932 18.0952 18.2619 17.6373 18.4004 17.1797C18.4598 16.9828 18.476 16.8066 18.4824 16.6621L18.7129 11.334C19.0623 11.1575 19.4005 10.9785 19.7246 10.7988V16.3535C19.0142 17.669 18.6011 18.5508 18.2539 19.7988C18.2467 19.8239 18.2409 19.8493 18.2363 19.875C18.1888 20.1553 18.1603 20.4458 18.2637 20.7676C18.3671 21.0893 18.6194 21.3579 18.8652 21.5176C19.1547 21.7055 19.4584 21.75 19.707 21.75H21.2266C21.4925 21.75 21.8112 21.6979 22.1094 21.4922C22.3359 21.336 22.5757 21.0818 22.6797 20.7676C22.7837 20.4534 22.7609 20.1574 22.7109 19.8711C22.7073 19.8501 22.7027 19.8292 22.6973 19.8086C22.3852 18.6203 21.9372 17.7152 21.2246 16.3516V9.88086C21.5878 9.62948 21.9009 9.38421 22.1543 9.12695C22.4373 8.83964 22.7227 8.54478 22.7227 8C22.7227 7.45522 22.4373 7.16036 22.1543 6.87305C21.8713 6.58573 21.517 6.31402 21.0977 6.03125C20.2589 5.46571 19.1646 4.87237 18.0117 4.32031C16.8589 3.76826 15.652 3.25984 14.5957 2.88477C13.5394 2.50969 12.7009 2.25 11.9863 2.25ZM11.9863 3.75C12.2173 3.75 13.1003 3.94606 14.0938 4.29883C15.0872 4.6516 16.256 5.14361 17.3633 5.67383C18.4705 6.20405 19.5196 6.77569 20.2578 7.27344C20.6269 7.52231 20.9189 7.75621 21.0859 7.92578C21.1134 7.95363 21.1287 7.97634 21.1465 8C21.1287 8.02366 21.1134 8.04637 21.0859 8.07422C20.9189 8.24379 20.6269 8.47573 20.2578 8.72461C19.5196 9.22236 18.4705 9.79595 17.3633 10.3262C16.256 10.8564 15.0872 11.3484 14.0938 11.7012C13.1003 12.0539 12.2173 12.25 11.9863 12.25C11.7554 12.25 10.8723 12.0539 9.87891 11.7012C8.88548 11.3484 7.71469 10.8564 6.60742 10.3262C5.50016 9.79595 4.45107 9.22236 3.71289 8.72461C3.3438 8.47573 3.05181 8.24379 2.88477 8.07422C2.85733 8.04637 2.84193 8.02366 2.82422 8C2.84193 7.97634 2.85733 7.95363 2.88477 7.92578C3.05181 7.75621 3.3438 7.52231 3.71289 7.27344C4.45107 6.77569 5.50016 6.20405 6.60742 5.67383C7.71469 5.14361 8.88548 4.6516 9.87891 4.29883C10.8723 3.94606 11.7554 3.75 11.9863 3.75ZM6.79102 12.0664C7.67982 12.4663 8.57299 12.8278 9.37695 13.1133C10.4332 13.4884 11.2717 13.75 11.9863 13.75C12.7009 13.75 13.5394 13.4884 14.5957 13.1133C15.3997 12.8278 16.2914 12.4663 17.1797 12.0664L16.9824 16.5957C16.9788 16.6766 16.9706 16.727 16.9648 16.7461C16.9013 16.9561 16.7975 17.1066 16.6738 17.1953C15.8147 17.8118 13.8946 18.25 11.9863 18.25C10.0781 18.25 8.15602 17.8118 7.29688 17.1953C7.17319 17.1065 7.07129 16.956 7.00781 16.7461C7.00211 16.7273 6.99178 16.6781 6.98828 16.5977L6.79102 12.0664ZM20.4746 18.3926C20.7237 18.9433 21.0816 19.5789 21.2383 20.1719C21.2427 20.2223 21.2486 20.2491 21.25 20.252C21.246 20.2515 21.2428 20.25 21.2266 20.25H19.707C19.6904 20.25 19.7068 20.2531 19.6992 20.252C19.6995 20.2449 19.706 20.2206 19.709 20.1797C19.892 19.5248 20.2317 18.9357 20.4746 18.3926Z" fill="currentColor"></path></svg>