<svg stroke="gray" fill="none" stroke-width="0" xmlns="http://www.w3.org/2000/svg" viewBox="0 0 20 20" class="absolute left-0 top-1/2 -translate-y-1/2 text-gray-300" width="24" height="24"><path d="M11.8088 17.4088C15.2947 17.1771 18.0713 14.361 18.2998 10.8258C18.3445 10.134 18.3445 9.41746 18.2998 8.72562C18.0713 5.19036 15.2947 2.37432 11.8088 2.1426C10.6196 2.06355 9.378 2.06372 8.19117 2.1426C4.70533 2.37432 1.92868 5.19036 1.7002 8.72562C1.65549 9.41746 1.65549 10.134 1.7002 10.8258C1.78342 12.1134 2.35286 13.3055 3.02326 14.3122C3.41251 15.017 3.15562 15.8965 2.75018 16.6649C2.45784 17.2189 2.31168 17.4959 2.42904 17.696C2.5464 17.896 2.80855 17.9025 3.33286 17.9152C4.36973 17.9405 5.0689 17.6465 5.6239 17.2372C5.93867 17.0051 6.09606 16.889 6.20454 16.8757C6.313 16.8624 6.52648 16.9503 6.95334 17.1261C7.337 17.2841 7.78247 17.3816 8.19117 17.4088C9.378 17.4877 10.6196 17.4879 11.8088 17.4088Z" stroke="gray" stroke-width="1.25" stroke-linejoin="round"></path><path d="M9.99607 10H10.0035M13.3257 10H13.3332M6.66646 10H6.67393" stroke="gray" stroke-width="1.66667" stroke-linecap="round" stroke-linejoin="round"></path></svg>