<svg width="11" height="10" viewBox="0 0 11 10" fill="none" xmlns="http://www.w3.org/2000/svg">
<path d="M8.4585 6.04373C8.4585 7.94978 6.8801 9.48284 4.97416 9.36905C3.0152 9.25209 1.67387 7.36817 1.92654 5.3989C2.07939 4.2009 2.64087 3.17359 3.25227 2.37703C3.35833 2.23795 3.46751 3.35692 3.57668 3.23365C3.68586 3.10721 4.69966 1.35288 5.05215 0.736498C5.11765 0.622704 5.26738 0.587933 5.37344 0.670118C6.08154 1.20432 8.4585 3.21152 8.4585 6.04373Z" fill="#FF6723"/>
<path d="M7.521 6.8285C7.521 8.09155 6.42139 9.10688 5.08385 9.061C3.64021 9.01207 2.64991 7.69092 2.86212 6.33001C3.16757 4.37887 5.17066 3.125 5.17066 3.125C5.17066 3.125 7.521 4.596 7.521 6.8285Z" fill="#FFB02E"/>
</svg>