<svg stroke="currentColor" fill="none" stroke-width="0" width="20" height="20" viewBox="0 0 24 24" xmlns="http://www.w3.org/2000/svg" class="text-purpleseat-base"><path fill-rule="evenodd" clip-rule="evenodd" d="M11.8527 1.75H12.1473C12.7176 1.74997 13.2158 1.74993 13.6264 1.8035C14.0737 1.86186 14.4905 1.99117 14.8638 2.29863C15.2285 2.59905 15.4506 2.98685 15.627 3.4201C15.7952 3.83332 15.9486 4.35956 16.1319 4.98793L16.2083 5.25H18.5724C18.6061 5.25 18.6392 5.24999 18.6718 5.24998C19.2859 5.24975 19.7218 5.24958 20.0899 5.33448C21.12 5.57211 21.9983 6.31307 22.2114 7.34771C22.2865 7.7124 22.2364 8.12537 22.178 8.60739C22.1737 8.64266 22.1694 8.6783 22.1651 8.71432C22.0715 9.49485 21.8008 10.1617 21.3071 10.6989L21.4855 12.7674C21.6573 14.7595 21.7927 16.3295 21.7374 17.5614C21.6807 18.8225 21.4217 19.8548 20.6995 20.6884C19.9716 21.5288 19.0025 21.9028 17.7968 22.0793C16.6301 22.25 15.1281 22.25 13.2377 22.25H10.7623C8.87192 22.25 7.36985 22.25 6.20315 22.0793C4.99753 21.9028 4.0284 21.5288 3.30045 20.6884C2.57833 19.8548 2.31927 18.8225 2.26264 17.5614C2.20732 16.3295 2.34272 14.7595 2.51451 12.7675L2.69289 10.6989C2.19917 10.1617 1.92847 9.49485 1.83489 8.71432C1.83058 8.67832 1.82626 8.6427 1.82199 8.60744C1.76357 8.12539 1.71353 7.71241 1.78864 7.34771C2.00174 6.31307 2.88004 5.57211 3.91012 5.33448C4.27816 5.24958 4.71414 5.24975 5.3282 5.24998C5.36082 5.24999 5.39393 5.25 5.42757 5.25H7.79167L7.8681 4.98795C8.05136 4.35957 8.20483 3.83333 8.37303 3.4201C8.54939 2.98685 8.77152 2.59905 9.13624 2.29863C9.50948 1.99117 9.92632 1.86186 10.3736 1.8035C10.7841 1.74993 11.2824 1.74997 11.8527 1.75ZM9.35423 5.25H14.6458C14.4794 4.68121 14.3597 4.28552 14.2377 3.98562C14.1069 3.66447 14.0037 3.5335 13.9101 3.45641C13.825 3.38635 13.7083 3.3269 13.4323 3.29089C13.1302 3.25148 12.7308 3.25 12.1023 3.25H11.8977C11.2692 3.25 10.8698 3.25148 10.5677 3.29089C10.2917 3.3269 10.175 3.38635 10.0899 3.45641C9.99634 3.5335 9.89307 3.66447 9.76234 3.98562C9.64027 4.28552 9.52063 4.68121 9.35423 5.25ZM4.11676 11.6463L4.01381 12.8402C3.83612 14.9008 3.71076 16.3723 3.76113 17.4941C3.81072 18.5985 4.02793 19.2373 4.43422 19.7063C4.8347 20.1686 5.40115 20.4459 6.42039 20.5951C7.46587 20.7481 8.85792 20.75 10.824 20.75H13.176C15.1421 20.75 16.5341 20.7481 17.5796 20.5951C18.5988 20.4459 19.1653 20.1686 19.5658 19.7063C19.9721 19.2373 20.1893 18.5985 20.2389 17.4941C20.2892 16.3723 20.1639 14.9008 19.9862 12.8402L19.8832 11.6463C19.6853 11.7272 19.4782 11.7984 19.263 11.8618L15.0919 13.0898C15.0545 13.1008 15.0175 13.1117 14.9809 13.1224C13.6609 13.5112 12.8503 13.75 12 13.75C11.1497 13.75 10.339 13.5112 9.01905 13.1224C8.98248 13.1117 8.94551 13.1008 8.90814 13.0898L4.737 11.8618C4.52183 11.7984 4.31466 11.7272 4.11676 11.6463ZM5.42757 6.75C4.67336 6.75 4.42573 6.75494 4.2473 6.7961C3.66217 6.93108 3.32846 7.30724 3.25781 7.6503C3.23898 7.74171 3.24615 7.8845 3.32423 8.53578C3.38969 9.08183 3.56511 9.44282 3.82286 9.71111C4.09163 9.99088 4.50877 10.2309 5.16063 10.4228L9.33177 11.6508C10.7976 12.0824 11.3916 12.25 12 12.25C12.6084 12.25 13.2024 12.0824 14.6682 11.6508L18.8394 10.4228C19.4912 10.2309 19.9084 9.99088 20.1771 9.71111C20.4349 9.44282 20.6103 9.08183 20.6758 8.53578C20.7538 7.88449 20.761 7.74171 20.7422 7.6503C20.6715 7.30724 20.3378 6.93108 19.7527 6.7961C19.5743 6.75494 19.3266 6.75 18.5724 6.75H5.42757Z" fill="currentColor"></path></svg>